<?xml version="1.0" encoding="utf-8"?>
<!-- Generator: Adobe Illustrator 23.0.0, SVG Export Plug-In . SVG Version: 6.00 Build 0)  -->
<svg version="1.1" id="Capa_1" xmlns="http://www.w3.org/2000/svg" xmlns:xlink="http://www.w3.org/1999/xlink" x="0px" y="0px"
	 viewBox="0 0 360 374" style="enable-background:new 0 0 360 374;" xml:space="preserve">
<style type="text/css">
	.st0{fill:none;stroke:#FFFFFF;stroke-width:10;stroke-miterlimit:10;}
	.st1{fill:none;stroke:#FFFFFF;stroke-width:7;stroke-miterlimit:10;}
	.st2{fill:#FFFFFF;}
</style>
<circle class="st0" cx="182.1" cy="189.2" r="171.9"/>
<path class="st1" d="M111,32.1c0,0,63.9,79.7,143.5,0"/>
<path class="st1" d="M339.9,118.5c0,0-83.6,60.8-1.4,143"/>
<path class="st1" d="M26.5,115.9c0,0,77.7,65.4-1.1,144.2"/>
<path class="st1" d="M109.9,344.2c0,0,72.3-80.8,142.4,1.6"/>
<g>
	<path class="st2" d="M182.2,104.9c-46.6,0-84.5,37.8-84.5,84.5c0,46.6,37.8,84.5,84.5,84.5s84.5-37.8,84.5-84.5
		C266.7,142.7,228.9,104.9,182.2,104.9z M175.5,237.3c-10.6,0-19.5-3-24.2-6l3.3-10c4,2.4,11.9,5.4,20.7,5.4c12.4,0,23-8.1,23-21
		c-0.1-12.5-8.5-21.5-27.9-21.5c-5.5,0-9.8,0.6-13.4,1l6.3-46.5h46.4v11h-37l-3.7,24.9c2.2-0.3,4.3-0.6,7.9-0.6
		c7.5,0,14.9,1.6,20.9,5.2c7.6,4.3,13.9,12.7,13.9,24.9C211.6,223.1,196.6,237.3,175.5,237.3z"/>
</g>
</svg>
